# xmcd CD database file
#
# Track frame offsets:
#	150
#	14526
#	26444
#	40477
#	53922
#	69080
#	80884
#	91691
#	102764
#	117250
#	128698
#	144605
#	156217
#	171818
#	181674
#	197742
#	212346
#	226027
#
# Disc length: 3166 seconds
#
# Revision: 0
# Processed by: cddbd v1.5.2PL0 Copyright (c) Steve Scherf et al.
# Submitted via: CDex 1.51
#
DISCID=e20c5c12
DTITLE=Caterina Valente - I Successi della Grande
DYEAR=2006
DGENRE=Jazz
TTITLE0=Till
TTITLE1=Personalita
TTITLE2=Malagueña
TTITLE3=Melodia d'Amore
TTITLE4=Kiss Of Fire
TTITLE5=Tipitipitipso
TTITLE6=Fiesta Cubana
TTITLE7=Nessuno al Mondo
TTITLE8=Temptation
TTITLE9=Precipitevolissimevolmente
TTITLE10=Jalousie
TTITLE11=Amedeo
TTITLE12=The Breeze And I
TTITLE13=Ciao
TTITLE14=Istanbul
TTITLE15=Granada
TTITLE16=Over The Rainbow
TTITLE17=Brava Caterina!
EXTD=YEAR: 2006
EXTT0=
EXTT1=
EXTT2=
EXTT3=
EXTT4=
EXTT5=
EXTT6=
EXTT7=
EXTT8=
EXTT9=
EXTT10=
EXTT11=
EXTT12=
EXTT13=
EXTT14=
EXTT15=
EXTT16=
EXTT17=
PLAYORDER=
